<?xml version="1.0" encoding="utf-8"?>
<!-- Generator: Adobe Illustrator 24.0.1, SVG Export Plug-In . SVG Version: 6.00 Build 0)  -->
<svg version="1.1" id="Layer_1" xmlns="http://www.w3.org/2000/svg" xmlns:xlink="http://www.w3.org/1999/xlink" x="0px" y="0px"
	 viewBox="0 0 180 180" style="enable-background:new 0 0 180 180;" xml:space="preserve">
<style type="text/css">
	.st0{fill:url(#SVGID_1_);}
	.st1{fill:url(#SVGID_2_);}
	.st2{fill:#FFFFFF;}
	.st3{fill:#1DB954;}
</style>
<g>
	
		<linearGradient id="SVGID_1_" gradientUnits="userSpaceOnUse" x1="300.568" y1="590.6672" x2="420.2334" y2="710.3326" gradientTransform="matrix(0.7071 0.7071 -0.7071 0.7071 295.1292 -624.8078)">
		<stop  offset="0" style="stop-color:#00D954"/>
		<stop  offset="0.9956" style="stop-color:#00924A"/>
		<stop  offset="1" style="stop-color:#00924A"/>
	</linearGradient>
	<path class="st0" d="M5.38,130.35v-80.7C5.38,25.3,25.3,5.38,49.65,5.38h80.7c24.35,0,44.27,19.92,44.27,44.27l0,80.7
		c0,24.35-19.92,44.27-44.27,44.27l-80.7,0C25.3,174.61,5.38,154.69,5.38,130.35z"/>
	<g>
		<path class="st2" d="M71.68,100.92c4.77-8.25,9.47-16.4,14.23-24.63c0,1.22,0,2.3,0,3.38c0,1.17,0.01,2.35,0,3.52
			c-0.03,2.63,1.15,4.57,3.33,5.96c1.72,1.09,3.62,1.7,5.6,2.02c2.06,0.33,4.13,0.56,6.2,0.77c6.59,0.69,13.01,2.1,19.27,4.32
			c6.66,2.36,10.73,7.13,13.07,13.58c0.96,2.63,1.42,5.39,1.5,8.17c0.13,4.17,0.31,8.34-0.19,12.5
			c-0.92,7.65-4.27,13.79-11.14,17.69c-3.62,2.06-7.58,3.06-11.71,3.18c-5.3,0.15-10.61,0.09-15.91,0.1c-2.22,0-4.44,0.02-6.65-0.09
			c-3.41-0.18-6.72-0.88-9.84-2.31c-7.07-3.24-11.07-8.83-12.59-16.35c-0.68-3.39-0.64-6.83-0.56-10.26
			c0.04-1.83,1.04-2.84,2.86-2.86c4.65-0.05,9.3-0.04,13.95,0c1.78,0.02,2.71,0.96,2.86,2.73c0.11,1.3,0.05,2.61,0.18,3.9
			c0.1,1.03,0.28,2.07,0.55,3.07c0.6,2.24,2.06,3.73,4.3,4.3c1.46,0.37,2.99,0.69,4.49,0.71c3.91,0.06,7.82,0.01,11.73-0.16
			c1.27-0.05,2.54-0.52,3.76-0.97c1.49-0.55,2.56-1.67,3.09-3.17c0.39-1.1,0.77-2.24,0.85-3.39c0.17-2.16,0.27-4.34,0.13-6.5
			c-0.15-2.33-1.42-4.16-3.36-5.48c-2.5-1.7-5.3-2.6-8.28-2.89c-6.63-0.65-13.18-1.72-19.56-3.65c-1.78-0.54-3.55-1.15-5.29-1.83
			C75.81,105.19,73.59,103.35,71.68,100.92z"/>
		<path class="st2" d="M89.83,69.5c7.41-12.82,14.72-25.49,22.04-38.16c-2.55,6.67-5.43,13.19-8.28,19.95
			c0.65,0.02,1.14,0.06,1.64,0.06c3.22-0.02,6.43,0.09,9.6,0.7c10.09,1.96,16.97,9.12,18.3,19.28c0.36,2.79,0.4,5.63,0.44,8.44
			c0.03,2.36-1.02,3.33-3.35,3.34c-4.35,0.02-8.69,0.02-13.04,0c-2.43-0.01-3.32-0.97-3.38-3.44c-0.03-1.3-0.08-2.61-0.22-3.9
			c-0.46-4.34-2.53-6.46-6.86-7.01c-1.33-0.17-2.68-0.27-4.03-0.26c-3.08,0.02-6.17,0.07-9.25,0.24
			C92.3,68.81,91.17,69.21,89.83,69.5z"/>
		<g>
			<path class="st2" d="M44.97,141.07c1.86-4.33,3.72-8.67,5.56-12.98c-0.08-0.08-0.11-0.15-0.15-0.16
				c-1.17-0.13-1.79-0.74-1.84-2.18c-0.01-0.17,0-0.34,0-0.52c0-20.26,0-40.51,0-60.77c0-0.4,0.03-0.8,0.1-1.2
				c0.13-0.76,0.59-1.23,1.35-1.37c0.34-0.06,0.68-0.1,1.02-0.1c2.7-0.01,5.4,0,8.1,0c0.11,0,0.23,0,0.34,0
				c1.5,0.07,2.12,0.7,2.15,2.2c0.01,0.32,0,0.63,0,0.95c0,15.52,0,31.05,0.01,46.57c0,0.71-0.15,1.32-0.51,1.95
				c-5.15,8.88-10.28,17.78-15.42,26.67c-0.2,0.34-0.4,0.67-0.61,1C45.05,141.11,45.01,141.09,44.97,141.07z"/>
			<g>
				<path class="st2" d="M61.59,49.23c0-0.02-1.67-20.2-1.67-20.2s-0.03-0.51-0.4-0.51c0,0-0.47,0-0.45,0.62l-0.03,19.99
					c-0.02,0.77-0.66,0.79-0.66,0.79c-0.59-0.07-0.67-0.64-0.67-0.64L56.7,29.06c-0.06-0.53-0.42-0.48-0.42-0.48
					c-0.41,0.02-0.42,0.41-0.42,0.41l-0.14,20.35c0.09,0.7-0.65,0.68-0.65,0.68c-0.69-0.03-0.65-0.68-0.65-0.68l-0.14-20.35
					c0,0-0.01-0.39-0.42-0.41c0,0-0.37-0.05-0.42,0.48l-1.01,20.22c0,0-0.09,0.57-0.67,0.64c0,0-0.64-0.03-0.66-0.79l-0.03-19.99
					c0.01-0.62-0.45-0.62-0.45-0.62c-0.37,0-0.4,0.51-0.4,0.51l-1.67,20.2c-0.09,1.32,0.2,2.73,0.65,3.96
					c0.37,0.99,0.81,1.93,1.57,2.68c0.68,0.68,1.54,1.22,2.04,2.07c0.63,1.06,0.87,2.34,0.89,3.56h-0.02c0,0,0.38,6.64-1.03,32.51
					c0,0-1.28,9.62,2.42,11.31v0.07c0.05-0.01,0.1-0.02,0.15-0.03c0.05,0.01,0.1,0.02,0.15,0.03l0-0.07
					c3.45-1.1,2.17-11.41,2.17-11.41c-1.23-23.26-0.87-31.02-0.8-32.23h0.02c0-2.49,0.87-3.9,2.54-5.64
					c0.81-0.84,1.31-1.84,1.69-2.94C61.39,51.89,61.7,50.53,61.59,49.23z"/>
				<path class="st2" d="M60.47,53.54c-1.23,1.5-3.19,2.01-5.06,1.57c-2.06-0.49-4.01-2-4.36-4.19c-0.14-0.89-0.1-1.77,0.02-2.65
					l-0.02-19.14c0.01-0.62-0.45-0.62-0.45-0.62c-0.37,0-0.4,0.51-0.4,0.51l-1.67,20.2c-0.09,1.32,0.2,2.73,0.65,3.96
					c0.37,0.99,0.81,1.93,1.57,2.68c0.68,0.68,1.54,1.22,2.04,2.07c0.63,1.06,0.87,2.34,0.89,3.56h-0.02c0,0,0.38,6.64-1.03,32.51
					c0,0-1.28,9.62,2.42,11.31v0.07c0.05-0.01,0.1-0.02,0.15-0.03c0.05,0.01,0.1,0.02,0.15,0.03l0-0.07
					c0.68-0.22,1.17-0.79,1.53-1.57c-3.88-1.13-2.94-8.57-2.94-8.57l0.91-29.34c-0.62-5.29,1.05-5.88,2.05-5.8
					c0.31-1.56,1.12-2.69,2.39-4.01c0.81-0.84,1.31-1.84,1.69-2.94c0.07-0.2,0.14-0.41,0.2-0.63
					C60.97,52.85,60.75,53.21,60.47,53.54z"/>
				<g>
					<g>
						<path class="st2" d="M55.91,61.88c0,0,0,0.62-0.01,1.72c0,1.09,0,2.65,0,4.52c0,1.87,0.02,4.05,0.05,6.39
							c0.03,2.34,0.08,4.83,0.16,7.32c0.04,1.25,0.07,2.49,0.13,3.72c0.05,1.23,0.11,2.43,0.18,3.6c0.07,1.17,0.15,2.3,0.21,3.37
							c0.05,1.07,0.06,2.09,0.06,3.02c0,1.87-0.12,3.43-0.28,4.51c-0.08,0.54-0.17,0.96-0.25,1.24c-0.04,0.14-0.07,0.25-0.1,0.32
							c-0.02,0.07-0.04,0.11-0.04,0.11s0.01-0.04,0.03-0.11c0.02-0.07,0.06-0.18,0.09-0.32c0.07-0.28,0.16-0.7,0.23-1.24
							c0.15-1.08,0.21-2.64,0.2-4.51c-0.01-0.93-0.04-1.95-0.09-3.02c-0.07-1.07-0.18-2.2-0.24-3.36c-0.07-1.17-0.14-2.37-0.2-3.6
							c-0.06-1.23-0.1-2.47-0.15-3.72c-0.07-2.49-0.11-4.99-0.13-7.33c-0.02-2.34,0-4.52,0.02-6.39c0.02-1.87,0.06-3.43,0.08-4.52
							C55.89,62.51,55.91,61.88,55.91,61.88z"/>
					</g>
				</g>
				<g>
					<path class="st2" d="M53.9,29.43l0.05,2.52l0.03,2.52c0.02,1.68,0.02,3.36,0.03,5.05l0,2.52l-0.01,2.52l-0.02,2.52
						c-0.01,0.84-0.02,1.68-0.04,2.52l0,0c0.03,0.26,0.12,0.51,0.28,0.72c0.08,0.11,0.17,0.2,0.28,0.28
						c0.05,0.04,0.11,0.07,0.17,0.1c0.06,0.03,0.12,0.05,0.18,0.08c-0.06-0.02-0.13-0.04-0.19-0.07c-0.06-0.03-0.12-0.06-0.17-0.1
						c-0.11-0.07-0.21-0.17-0.29-0.27c-0.17-0.21-0.28-0.47-0.32-0.74l0,0v0c-0.02-0.84-0.03-1.68-0.04-2.52l-0.02-2.52l-0.01-2.52
						l0-2.52c0.01-1.68,0-3.36,0.03-5.05l0.03-2.52L53.9,29.43z"/>
				</g>
				<g>
					<g>
						<path class="st2" d="M56.4,29.43c0,0,0.08,1.37,0.21,3.42c0.06,1.03,0.12,2.23,0.19,3.51c0.06,1.28,0.13,2.66,0.19,4.03
							c0.06,1.37,0.11,2.74,0.17,4.03c0.06,1.29,0.09,2.49,0.13,3.51c0.02,0.51,0.03,0.99,0.04,1.4c0.01,0.21,0.01,0.4,0.02,0.59
							c-0.01,0.18,0.03,0.34,0.1,0.47c0.15,0.26,0.4,0.34,0.55,0.37c0.08,0.02,0.14,0.02,0.18,0.02c0.04,0,0.06,0,0.06,0
							s-0.02,0-0.06,0c-0.04,0-0.1,0-0.18-0.02c-0.15-0.02-0.41-0.09-0.58-0.36c-0.08-0.13-0.13-0.31-0.13-0.49
							c-0.01-0.18-0.02-0.38-0.04-0.58c-0.02-0.42-0.05-0.89-0.08-1.4c-0.05-1.03-0.13-2.23-0.19-3.51
							c-0.06-1.28-0.13-2.66-0.19-4.03c-0.06-1.37-0.11-2.74-0.17-4.03c-0.05-1.29-0.09-2.49-0.12-3.51
							C56.43,30.8,56.4,29.43,56.4,29.43z"/>
					</g>
				</g>
				<g>
					<g>
						<path class="st2" d="M59.62,28.84c0,0,0.13,1.59,0.34,3.96c0.09,1.19,0.2,2.58,0.32,4.06c0.11,1.49,0.23,3.07,0.34,4.66
							c0.11,1.59,0.21,3.17,0.31,4.66c0.05,0.74,0.09,1.46,0.14,2.15c0.06,0.68,0.05,1.34-0.03,1.93c-0.07,0.6-0.21,1.13-0.39,1.59
							c-0.18,0.45-0.41,0.82-0.63,1.09c-0.22,0.27-0.43,0.45-0.58,0.56c-0.15,0.11-0.24,0.16-0.24,0.16s0.08-0.06,0.23-0.17
							c0.15-0.12,0.35-0.3,0.56-0.58c0.21-0.27,0.42-0.64,0.58-1.1c0.16-0.45,0.28-0.99,0.35-1.57c0.06-0.59,0.06-1.23-0.01-1.91
							c-0.05-0.68-0.11-1.4-0.16-2.14c-0.11-1.49-0.23-3.07-0.34-4.66c-0.11-1.59-0.21-3.17-0.31-4.66
							C60,35.39,59.92,34,59.84,32.81C59.71,30.42,59.62,28.84,59.62,28.84z"/>
					</g>
				</g>
			</g>
		</g>
	</g>
</g>
</svg>
