<?xml version="1.0" encoding="utf-8"?>
<!-- Generator: Adobe Illustrator 24.0.1, SVG Export Plug-In . SVG Version: 6.00 Build 0)  -->
<svg version="1.1" id="Layer_1" xmlns="http://www.w3.org/2000/svg" xmlns:xlink="http://www.w3.org/1999/xlink" x="0px" y="0px"
	 viewBox="0 0 1170 2532" style="enable-background:new 0 0 1170 2532;" xml:space="preserve">
<style type="text/css">
	.st0{fill:url(#SVGID_1_);}
	.st1{fill:url(#SVGID_2_);}
	.st2{fill:#FFFFFF;}
	.st3{fill:#1DB954;}
</style>
<linearGradient id="SVGID_1_" gradientUnits="userSpaceOnUse" x1="-340.5" y1="340.5" x2="1510.5" y2="2191.5">
	<stop  offset="0" style="stop-color:#00D954"/>
	<stop  offset="0.9956" style="stop-color:#00924A"/>
	<stop  offset="1" style="stop-color:#00924A"/>
</linearGradient>
<rect class="st0" width="1170" height="2532"/>
<g>
	<g>
		<path class="st2" d="M291.07,1751.95c12.07,0,22.45,4.37,31.13,13.1c8.68,8.73,13.03,19.38,13.03,31.95
			c0,12.44-4.29,22.98-12.85,31.6c-8.57,8.62-18.96,12.92-31.19,12.92c-12.81,0-23.45-4.42-31.92-13.28
			c-8.48-8.85-12.71-19.36-12.71-31.54c0-8.16,1.97-15.66,5.92-22.5c3.94-6.84,9.37-12.27,16.27-16.27
			C275.67,1753.95,283.11,1751.95,291.07,1751.95z M290.9,1767.84c-7.9,0-14.53,2.74-19.91,8.23c-5.38,5.5-8.07,12.47-8.07,20.94
			c0,9.43,3.38,16.89,10.16,22.38c5.26,4.29,11.3,6.44,18.11,6.44c7.69,0,14.26-2.78,19.68-8.35c5.42-5.57,8.12-12.43,8.12-20.58
			c0-8.12-2.73-14.99-8.18-20.62C305.36,1770.65,298.72,1767.84,290.9,1767.84z"/>
		<path class="st2" d="M348.8,1776.3h15.82v6.46c3.59-3.02,6.84-5.12,9.76-6.31c2.92-1.18,5.9-1.78,8.95-1.78
			c6.25,0,11.55,2.19,15.92,6.56c3.66,3.71,5.5,9.2,5.5,16.46v41.69H389.1v-27.63c0-7.53-0.34-12.52-1.01-15
			c-0.68-2.47-1.85-4.36-3.52-5.65c-1.68-1.3-3.75-1.94-6.22-1.94c-3.2,0-5.95,1.07-8.25,3.21c-2.29,2.14-3.89,5.11-4.78,8.9
			c-0.46,1.97-0.69,6.24-0.69,12.8v25.31H348.8V1776.3z"/>
		<path class="st2" d="M483.27,1812.43h-50.85c0.74,4.48,2.7,8.05,5.89,10.69c3.18,2.65,7.26,3.98,12.2,3.98
			c5.92,0,10.99-2.06,15.25-6.2l13.34,6.26c-3.33,4.71-7.31,8.2-11.95,10.46c-4.64,2.26-10.15,3.4-16.53,3.4
			c-9.9,0-17.96-3.12-24.18-9.37c-6.23-6.24-9.34-14.06-9.34-23.46c0-9.62,3.1-17.62,9.3-23.98c6.21-6.35,13.98-9.54,23.34-9.54
			c9.94,0,18.01,3.18,24.24,9.54c6.23,6.36,9.34,14.76,9.34,25.2L483.27,1812.43z M467.43,1799.96c-1.04-3.51-3.1-6.38-6.18-8.58
			c-3.08-2.2-6.65-3.3-10.72-3.3c-4.41,0-8.28,1.24-11.62,3.71c-2.09,1.55-4.02,4.27-5.81,8.17H467.43z"/>
		<path class="st2" d="M489.65,1823.5l7.25-4.35c5.11,9.39,10.99,14.09,17.68,14.09c2.86,0,5.55-0.67,8.06-2
			c2.52-1.33,4.43-3.12,5.75-5.36c1.31-2.24,1.97-4.62,1.97-7.13c0-2.86-0.96-5.66-2.9-8.41c-2.67-3.79-7.53-8.35-14.61-13.68
			c-7.12-5.37-11.55-9.26-13.28-11.66c-3.02-4.02-4.53-8.36-4.53-13.04c0-3.72,0.89-7.1,2.67-10.15c1.78-3.05,4.28-5.46,7.51-7.22
			c3.23-1.75,6.74-2.63,10.52-2.63c4.02,0,7.78,1,11.28,2.98c3.5,1.99,7.2,5.66,11.11,10.99l-6.96,5.27
			c-3.2-4.25-5.94-7.05-8.2-8.41s-4.72-2.03-7.39-2.03c-3.44,0-6.25,1.04-8.44,3.13c-2.18,2.08-3.27,4.65-3.27,7.71
			c0,1.85,0.39,3.65,1.16,5.39c0.77,1.73,2.19,3.63,4.23,5.68c1.12,1.08,4.79,3.92,11.02,8.52c7.38,5.45,12.44,10.3,15.19,14.55
			c2.74,4.25,4.12,8.52,4.12,12.82c0,6.18-2.35,11.55-7.04,16.12c-4.7,4.56-10.41,6.84-17.14,6.84c-5.18,0-9.87-1.38-14.09-4.15
			C497.09,1834.62,493.2,1829.99,489.65,1823.5z"/>
		<path class="st2" d="M609.38,1818.46l6.84,3.59c-2.24,4.4-4.83,7.96-7.77,10.67c-2.94,2.71-6.24,4.77-9.93,6.18
			c-3.67,1.41-7.84,2.12-12.48,2.12c-10.29,0-18.33-3.38-24.14-10.12c-5.8-6.74-8.71-14.37-8.71-22.88c0-8,2.46-15.13,7.37-21.39
			c6.23-7.96,14.57-11.95,25.01-11.95c10.75,0,19.35,4.08,25.77,12.23c4.56,5.76,6.88,12.95,6.96,21.57h-56.77
			c0.15,7.33,2.5,13.34,7.03,18.02c4.53,4.69,10.12,7.04,16.78,7.04c3.21,0,6.33-0.56,9.38-1.68c3.04-1.11,5.62-2.6,7.75-4.45
			C604.6,1825.56,606.91,1822.58,609.38,1818.46z M609.38,1801.47c-1.09-4.33-2.66-7.79-4.73-10.38c-2.07-2.59-4.8-4.68-8.21-6.26
			c-3.41-1.58-6.99-2.38-10.75-2.38c-6.19,0-11.51,1.98-15.97,5.97c-3.25,2.9-5.71,7.25-7.37,13.05H609.38z"/>
		<path class="st2" d="M694.68,1789.41l-6.44,4c-5.56-7.38-13.15-11.07-22.76-11.07c-7.69,0-14.06,2.46-19.14,7.41
			c-5.07,4.95-7.61,10.95-7.61,18.01c0,4.6,1.17,8.92,3.5,12.98c2.34,4.05,5.54,7.2,9.62,9.44c4.07,2.24,8.64,3.36,13.7,3.36
			c9.27,0,16.83-3.69,22.7-11.07l6.44,4.23c-3.02,4.55-7.06,8.07-12.15,10.57c-5.08,2.51-10.87,3.76-17.36,3.76
			c-9.98,0-18.25-3.18-24.82-9.52c-6.57-6.33-9.86-14.05-9.86-23.14c0-6.1,1.54-11.78,4.62-17.02c3.07-5.24,7.29-9.32,12.67-12.27
			c5.37-2.94,11.39-4.4,18.03-4.4c4.18,0,8.21,0.64,12.1,1.91c3.88,1.28,7.18,2.94,9.88,4.99
			C690.49,1783.62,692.79,1786.24,694.68,1789.41z"/>
		<path class="st2" d="M740.14,1774.68c9.72,0,17.77,3.52,24.17,10.55c5.81,6.42,8.71,14.02,8.71,22.79
			c0,8.81-3.07,16.52-9.21,23.11c-6.14,6.59-14.03,9.89-23.67,9.89c-9.68,0-17.59-3.3-23.73-9.89c-6.14-6.59-9.21-14.29-9.21-23.11
			c0-8.73,2.91-16.31,8.72-22.73C722.3,1778.22,730.38,1774.68,740.14,1774.68z M740.11,1782.62c-6.75,0-12.55,2.49-17.4,7.48
			s-7.28,11.02-7.28,18.09c0,4.56,1.1,8.82,3.32,12.76c2.21,3.94,5.19,6.99,8.96,9.14c3.76,2.14,7.9,3.22,12.4,3.22
			c4.5,0,8.63-1.08,12.39-3.22c3.76-2.14,6.75-5.19,8.97-9.14c2.21-3.94,3.32-8.19,3.32-12.76c0-7.07-2.44-13.1-7.3-18.09
			C752.61,1785.11,746.82,1782.62,740.11,1782.62z"/>
		<path class="st2" d="M788.04,1776.3h8.12v11.31c3.25-4.33,6.84-7.57,10.78-9.71c3.94-2.14,8.24-3.22,12.87-3.22
			c4.71,0,8.9,1.2,12.56,3.59c3.65,2.4,6.34,5.63,8.09,9.69c1.73,4.06,2.61,10.38,2.61,18.96v32.48h-8.11v-30.09
			c0-7.27-0.3-12.12-0.91-14.55c-0.94-4.18-2.75-7.32-5.41-9.43c-2.67-2.11-6.15-3.16-10.44-3.16c-4.91,0-9.3,1.62-13.19,4.87
			c-3.89,3.25-6.45,7.27-7.69,12.05c-0.77,3.13-1.16,8.86-1.16,17.17v23.14h-8.12V1776.3z"/>
		<path class="st2" d="M923.43,1751.95v87.44h-8v-10.84c-3.41,4.14-7.22,7.25-11.46,9.34c-4.23,2.08-8.86,3.13-13.89,3.13
			c-8.93,0-16.55-3.24-22.88-9.71c-6.32-6.48-9.47-14.36-9.47-23.63c0-9.08,3.18-16.86,9.56-23.31c6.38-6.46,14.05-9.69,23.02-9.69
			c5.18,0,9.86,1.1,14.06,3.31c4.19,2.2,7.87,5.51,11.05,9.91v-35.94H923.43z M890.99,1782.5c-4.52,0-8.69,1.11-12.51,3.33
			c-3.82,2.22-6.87,5.35-9.13,9.36c-2.26,4.02-3.39,8.26-3.39,12.75c0,4.44,1.14,8.68,3.42,12.74c2.28,4.06,5.34,7.21,9.18,9.47
			c3.84,2.26,7.97,3.39,12.37,3.39c4.44,0,8.65-1.12,12.62-3.36c3.98-2.24,7.04-5.27,9.18-9.09c2.14-3.82,3.21-8.13,3.21-12.92
			c0-7.3-2.4-13.4-7.2-18.31C903.93,1784.96,898.02,1782.5,890.99,1782.5z"/>
	</g>
	<g>
		<path class="st2" d="M449.13,1335.21c35.68-61.76,70.93-122.78,106.53-184.41c0,9.12,0,17.21,0,25.3c0,8.78,0.07,17.57-0.04,26.35
			c-0.25,19.68,8.6,34.24,24.97,44.58c12.85,8.13,27.1,12.72,41.93,15.11c15.4,2.48,30.93,4.16,46.45,5.79
			c49.35,5.2,97.42,15.69,144.28,32.31c49.88,17.68,80.31,53.41,97.85,101.7c7.16,19.7,10.61,40.35,11.26,61.17
			c0.98,31.18,2.33,62.46-1.4,93.57c-6.86,57.24-31.98,103.25-83.38,132.45c-27.11,15.4-56.78,22.94-87.68,23.83
			c-39.68,1.15-79.4,0.71-119.1,0.78c-16.59,0.03-33.22,0.16-49.78-0.7c-25.52-1.33-50.3-6.56-73.65-17.26
			c-52.9-24.23-82.9-66.14-94.22-122.43c-5.11-25.41-4.77-51.11-4.16-76.79c0.33-13.71,7.8-21.29,21.44-21.43
			c34.82-0.35,69.65-0.34,104.47,0c13.31,0.13,20.31,7.17,21.41,20.47c0.8,9.71,0.41,19.53,1.33,29.22
			c0.73,7.72,2.12,15.47,4.14,22.95c4.52,16.74,15.45,27.89,32.19,32.16c10.96,2.79,22.36,5.13,33.6,5.29
			c29.26,0.41,58.56,0.08,87.79-1.19c9.48-0.41,19.05-3.91,28.11-7.26c11.18-4.13,19.16-12.49,23.17-23.71
			c2.93-8.2,5.73-16.79,6.4-25.38c1.25-16.16,2.01-32.52,0.95-48.66c-1.15-17.48-10.61-31.11-25.13-41.01
			c-18.71-12.76-39.67-19.44-61.97-21.64c-49.63-4.88-98.66-12.86-146.46-27.34c-13.36-4.05-26.61-8.6-39.59-13.71
			C480.08,1367.19,463.48,1353.39,449.13,1335.21z"/>
		<path class="st2" d="M584.99,1099.99c55.44-95.99,110.23-190.84,165.02-285.69c-19.1,49.92-40.68,98.79-62.02,149.33
			c4.83,0.17,8.54,0.44,12.25,0.42c24.11-0.16,48.11,0.65,71.89,5.26c75.55,14.64,127.07,68.24,137.01,144.37
			c2.73,20.87,3.01,42.13,3.32,63.22c0.26,17.63-7.61,24.92-25.09,25c-32.54,0.14-65.09,0.14-97.63,0
			c-18.16-0.08-24.88-7.24-25.32-25.73c-0.23-9.74-0.62-19.51-1.65-29.19c-3.47-32.5-18.95-48.36-51.35-52.46
			c-9.98-1.26-20.1-2.01-30.15-1.94c-23.08,0.17-46.18,0.55-69.22,1.76C603.5,1094.81,595.06,1097.81,584.99,1099.99z"/>
		<g>
			<path class="st2" d="M249.17,1635.81c13.91-32.44,27.82-64.89,41.65-97.16c-0.6-0.63-0.85-1.15-1.15-1.18
				c-8.73-0.95-13.37-5.56-13.75-16.29c-0.05-1.29-0.02-2.58-0.02-3.87c0-151.66,0-303.31,0.03-454.97c0-2.99,0.23-6.01,0.75-8.95
				c0.99-5.67,4.45-9.19,10.13-10.26c2.52-0.47,5.11-0.76,7.66-0.77c20.2-0.06,40.41-0.03,60.61-0.03c0.86,0,1.72-0.01,2.58,0.02
				c11.22,0.51,15.88,5.27,16.11,16.48c0.05,2.36,0.02,4.73,0.02,7.09c0,116.21-0.02,232.42,0.07,348.63
				c0,5.32-1.11,9.91-3.81,14.56c-38.56,66.5-76.97,133.09-115.42,199.66c-1.46,2.53-3.03,5-4.54,7.5
				C249.79,1636.12,249.48,1635.97,249.17,1635.81z"/>
			<g>
				<path class="st2" d="M373.63,948.22c-0.01-0.13-12.51-151.27-12.51-151.27s-0.22-3.83-2.96-3.83c0,0-3.5,0-3.39,4.63
					l-0.19,149.67c-0.17,5.75-4.96,5.95-4.96,5.95c-4.38-0.53-5.03-4.77-5.03-4.77l-7.56-151.38c-0.44-3.98-3.18-3.58-3.18-3.58
					c-3.07,0.13-3.17,3.05-3.17,3.05l-1.07,152.33c0.7,5.26-4.88,5.09-4.88,5.09c-5.17-0.2-4.89-5.09-4.89-5.09l-1.07-152.33
					c0,0-0.11-2.92-3.18-3.05c0,0-2.74-0.4-3.17,3.58l-7.56,151.38c0,0-0.66,4.24-5.04,4.77c0,0-4.79-0.2-4.96-5.95l-0.19-149.67
					c0.11-4.63-3.4-4.63-3.4-4.63c-2.74,0-2.96,3.83-2.96,3.83L275.8,948.22c-0.66,9.91,1.47,20.41,4.89,29.63
					c2.76,7.41,6.06,14.45,11.74,20.05c5.13,5.06,11.52,9.15,15.3,15.47c4.75,7.95,6.5,17.51,6.66,26.68h-0.15
					c0,0,2.87,49.72-7.74,243.42c0,0-9.55,72.05,18.11,84.66v0.53c0.39-0.07,0.76-0.17,1.13-0.25c0.37,0.09,0.75,0.18,1.13,0.25
					l0.01-0.53c25.8-8.24,16.24-85.46,16.24-85.46c-9.18-174.11-6.51-232.26-5.96-241.31h0.13c0-18.66,6.48-29.17,19-42.2
					c6.05-6.3,9.81-13.77,12.66-21.97C372.11,968.12,374.43,957.92,373.63,948.22z"/>
				<path class="st2" d="M365.25,980.48c-9.24,11.2-23.9,15.07-37.88,11.76c-15.45-3.66-30-14.98-32.64-31.38
					c-1.07-6.65-0.73-13.25,0.12-19.82l-0.18-143.28c0.11-4.63-3.4-4.63-3.4-4.63c-2.74,0-2.96,3.83-2.96,3.83L275.8,948.22
					c-0.66,9.91,1.47,20.41,4.89,29.63c2.76,7.41,6.06,14.45,11.74,20.05c5.13,5.06,11.52,9.15,15.3,15.47
					c4.75,7.95,6.5,17.51,6.66,26.68h-0.15c0,0,2.87,49.72-7.74,243.42c0,0-9.55,72.05,18.11,84.66v0.53
					c0.39-0.07,0.76-0.17,1.13-0.25c0.37,0.09,0.75,0.18,1.13,0.25l0.01-0.53c5.07-1.62,8.76-5.91,11.44-11.74
					c-29.03-8.47-22.02-64.2-22.02-64.2l6.78-219.64c-4.62-39.61,7.88-44.05,15.35-43.39c2.35-11.66,8.36-20.11,17.87-30.01
					c6.05-6.3,9.81-13.77,12.66-21.97c0.53-1.53,1.03-3.11,1.51-4.69C369,975.32,367.29,978.01,365.25,980.48z"/>
				<g>
					<g>
						<path class="st2" d="M331.08,1042.96c0,0-0.04,4.67-0.1,12.84c0,8.17-0.01,19.84-0.02,33.85c0.01,14.01,0.17,30.35,0.36,47.85
							c0.23,17.51,0.59,36.18,1.18,54.84c0.32,9.33,0.55,18.66,0.99,27.84c0.36,9.18,0.85,18.21,1.36,26.95
							c0.56,8.74,1.1,17.19,1.61,25.2c0.34,8.03,0.47,15.63,0.45,22.64c-0.04,14.02-0.87,25.71-2.1,33.8
							c-0.6,4.05-1.31,7.19-1.9,9.3c-0.29,1.06-0.55,1.85-0.74,2.39c-0.18,0.54-0.28,0.81-0.28,0.81s0.09-0.28,0.26-0.82
							c0.18-0.54,0.43-1.34,0.69-2.4c0.55-2.12,1.19-5.26,1.71-9.31c1.09-8.09,1.58-19.77,1.48-33.76c-0.06-7-0.28-14.58-0.71-22.58
							c-0.5-7.98-1.33-16.44-1.82-25.17c-0.55-8.74-1.06-17.78-1.46-26.97c-0.47-9.19-0.75-18.52-1.1-27.86
							c-0.52-18.68-0.81-37.36-0.97-54.87c-0.13-17.51,0-33.86,0.12-47.87c0.14-14.01,0.44-25.68,0.63-33.85
							C330.95,1047.63,331.08,1042.96,331.08,1042.96z"/>
					</g>
				</g>
				<g>
					<path class="st2" d="M316.02,799.95l0.35,18.89l0.22,18.89c0.17,12.59,0.12,25.18,0.19,37.77l-0.02,18.89l-0.07,18.89
						l-0.17,18.89c-0.06,6.3-0.14,12.59-0.27,18.89l0-0.02c0.22,1.91,0.93,3.83,2.1,5.41c0.57,0.8,1.28,1.5,2.09,2.07
						c0.39,0.31,0.83,0.54,1.26,0.78c0.43,0.24,0.91,0.39,1.37,0.59c-0.46-0.18-0.95-0.31-1.39-0.54c-0.45-0.22-0.89-0.44-1.3-0.74
						c-0.84-0.54-1.58-1.24-2.2-2.03c-1.26-1.58-2.06-3.48-2.37-5.51l0,0v-0.02c-0.13-6.3-0.22-12.59-0.27-18.89l-0.17-18.89
						l-0.07-18.89l-0.02-18.89c0.07-12.59,0.03-25.18,0.19-37.77l0.22-18.89L316.02,799.95z"/>
				</g>
				<g>
					<g>
						<path class="st2" d="M334.72,799.95c0,0,0.63,10.25,1.58,25.64c0.41,7.69,0.9,16.67,1.41,26.29
							c0.46,9.62,0.96,19.88,1.45,30.14c0.42,10.26,0.85,20.53,1.25,30.15c0.42,9.62,0.66,18.61,0.95,26.31
							c0.12,3.85,0.23,7.38,0.33,10.51c0.04,1.56,0.08,3.03,0.12,4.38c-0.05,1.36,0.22,2.53,0.76,3.51c1.09,1.96,2.96,2.57,4.09,2.8
							c0.59,0.14,1.05,0.15,1.36,0.18c0.31,0.02,0.47,0.04,0.47,0.04s-0.16,0-0.47-0.01c-0.31-0.01-0.77,0-1.37-0.12
							c-1.14-0.18-3.09-0.69-4.35-2.72c-0.61-0.97-0.96-2.3-0.96-3.64c-0.08-1.35-0.18-2.81-0.28-4.38
							c-0.18-3.12-0.39-6.65-0.61-10.5c-0.4-7.69-0.96-16.67-1.4-26.29c-0.46-9.62-0.95-19.88-1.44-30.14
							c-0.42-10.26-0.85-20.53-1.24-30.15c-0.34-9.62-0.66-18.61-0.93-26.31C335,810.22,334.72,799.95,334.72,799.95z"/>
					</g>
				</g>
				<g>
					<g>
						<path class="st2" d="M358.86,795.54c0,0,1.01,11.87,2.52,29.67c0.7,8.9,1.51,19.29,2.38,30.42
							c0.82,11.13,1.69,23.01,2.56,34.89c0.8,11.88,1.6,23.76,2.35,34.9c0.36,5.57,0.7,10.96,1.02,16.06
							c0.45,5.1,0.37,10.03-0.2,14.48c-0.54,4.47-1.57,8.5-2.93,11.89c-1.37,3.39-3.03,6.15-4.7,8.17
							c-1.66,2.03-3.23,3.37-4.35,4.21c-1.13,0.82-1.77,1.21-1.77,1.21s0.62-0.41,1.73-1.26c1.09-0.87,2.61-2.25,4.18-4.31
							c1.59-2.05,3.14-4.82,4.38-8.21c1.22-3.39,2.12-7.38,2.59-11.79c0.48-4.42,0.48-9.21-0.07-14.3
							c-0.39-5.1-0.8-10.48-1.23-16.05c-0.81-11.13-1.68-23.01-2.55-34.89c-0.8-11.88-1.6-23.76-2.35-34.9
							c-0.7-11.14-1.35-21.54-1.9-30.46C359.52,807.43,358.86,795.54,358.86,795.54z"/>
					</g>
				</g>
			</g>
		</g>
	</g>
</g>
</svg>
